<?xml version="1.0" standalone="no"?>
<!DOCTYPE svg PUBLIC "-//W3C//DTD SVG 20010904//EN"
 "http://www.w3.org/TR/2001/REC-SVG-20010904/DTD/svg10.dtd">
<svg version="1.0" xmlns="http://www.w3.org/2000/svg"
 width="225.000000pt" height="225.000000pt" viewBox="0 0 225.000000 225.000000"
 preserveAspectRatio="xMidYMid meet">
<metadata>
Created by potrace 1.14, written by Peter Selinger 2001-2017
</metadata>
<g transform="translate(0.000000,225.000000) scale(0.100000,-0.100000)"
fill="#000000" stroke="none">
<path d="M1023 2109 c-386 -37 -725 -313 -843 -684 -33 -105 -39 -326 -12
-456 75 -361 330 -643 679 -753 456 -143 957 77 1178 519 25 49 45 87 45 84 0
-20 -46 -134 -79 -195 -105 -194 -253 -334 -452 -428 -145 -69 -270 -96 -434
-97 -334 0 -650 174 -832 459 -18 28 -36 52 -39 52 -2 0 -56 -30 -119 -66
l-115 -66 0 -239 0 -239 1125 0 1125 0 0 885 0 884 -131 -75 c-72 -42 -134
-72 -138 -67 -4 4 -29 38 -55 75 -158 226 -408 372 -696 408 -92 11 -88 11
-207 -1z m359 -206 c268 -93 466 -309 539 -588 26 -100 28 -271 4 -360 -47
-179 -161 -319 -326 -399 -52 -24 -122 -51 -157 -57 l-63 -13 -15 -56 c-17
-61 -52 -100 -89 -100 -14 0 -174 43 -357 95 -404 114 -399 111 -362 235 l16
54 -30 27 c-102 91 -180 230 -208 368 -60 304 148 638 482 772 123 49 182 59
339 55 126 -2 149 -6 227 -33z m638 -334 c12 -23 20 -43 18 -45 -3 -2 -14 17
-26 41 -27 56 -20 60 8 4z m49 -119 c0 -10 -3 -8 -9 5 -12 27 -12 43 0 25 5
-8 9 -22 9 -30z m28 -102 c-3 -8 -6 -5 -6 6 -1 11 2 17 5 13 3 -3 4 -12 1 -19z
m10 -60 c-3 -7 -5 -2 -5 12 0 14 2 19 5 13 2 -7 2 -19 0 -25z m10 -75 c-3 -10
-5 -2 -5 17 0 19 2 27 5 18 2 -10 2 -26 0 -35z m10 -100 c-3 -10 -5 -2 -5 17
0 19 2 27 5 18 2 -10 2 -26 0 -35z m-10 -105 c-2 -13 -4 -5 -4 17 -1 22 1 32
4 23 2 -10 2 -28 0 -40z m-10 -70 c-3 -7 -5 -2 -5 12 0 14 2 19 5 13 2 -7 2
-19 0 -25z m-10 -50 c-3 -7 -5 -2 -5 12 0 14 2 19 5 13 2 -7 2 -19 0 -25z"/>
<path d="M963 1873 c9 -2 23 -2 30 0 6 3 -1 5 -18 5 -16 0 -22 -2 -12 -5z"/>
<path d="M898 1863 c6 -2 18 -2 25 0 6 3 1 5 -13 5 -14 0 -19 -2 -12 -5z"/>
<path d="M1028 1863 c6 -2 18 -2 25 0 6 3 1 5 -13 5 -14 0 -19 -2 -12 -5z"/>
<path d="M815 1841 c-53 -25 -43 -26 20 -1 28 10 43 19 35 19 -8 0 -33 -8 -55
-18z"/>
<path d="M1100 1846 c0 -2 7 -7 16 -10 8 -3 12 -2 9 4 -6 10 -25 14 -25 6z"/>
<path d="M1161 1805 c9 -11 21 -29 27 -40 6 -11 12 -14 12 -8 0 7 -12 25 -27
41 -16 15 -21 19 -12 7z"/>
<path d="M739 1799 l-24 -20 28 17 c15 9 27 18 27 20 0 8 -8 4 -31 -17z"/>
<path d="M683 1758 c-29 -32 -63 -90 -63 -108 0 -8 9 3 19 25 10 22 30 55 45
73 31 36 30 44 -1 10z"/>
<path d="M1203 1705 c0 -22 2 -30 4 -17 2 12 2 30 0 40 -3 9 -5 -1 -4 -23z"/>
<path d="M1128 1569 c-31 -32 -49 -55 -39 -50 18 10 101 97 101 106 0 8 -1 7
-62 -56z"/>
<path d="M660 1515 c13 -14 26 -25 28 -25 3 0 -5 11 -18 25 -13 14 -26 25 -28
25 -3 0 5 -11 18 -25z"/>
<path d="M1030 1495 c-14 -8 -20 -14 -14 -15 5 0 19 7 30 15 24 18 16 19 -16
0z"/>
<path d="M707 1479 c7 -7 15 -10 18 -7 3 3 -2 9 -12 12 -14 6 -15 5 -6 -5z"/>
<path d="M778 1453 c6 -2 18 -2 25 0 6 3 1 5 -13 5 -14 0 -19 -2 -12 -5z"/>
<path d="M903 1453 c9 -2 23 -2 30 0 6 3 -1 5 -18 5 -16 0 -22 -2 -12 -5z"/>
<path d="M940 1400 c-29 -29 -26 -43 27 -137 59 -104 98 -121 138 -59 16 25
16 28 -25 103 -23 43 -49 86 -57 96 -21 23 -58 22 -83 -3z"/>
<path d="M670 1335 c-171 -55 -231 -284 -107 -413 50 -52 103 -75 172 -75 75
0 127 25 182 87 163 185 -16 475 -247 401z"/>
<path d="M1280 1266 c-90 -52 -112 -82 -88 -119 27 -39 51 -39 130 3 82 43
118 72 118 93 0 25 -40 67 -63 66 -12 0 -56 -19 -97 -43z"/>
<path d="M1420 1140 c-196 -38 -276 -278 -141 -423 45 -49 98 -71 171 -71 98
0 177 51 226 144 27 51 25 162 -3 216 -50 95 -159 153 -253 134z"/>
<path d="M975 835 c-49 -46 -88 -85 -85 -87 9 -8 233 -68 237 -64 5 5 -48 219
-56 228 -3 3 -46 -31 -96 -77z"/>
</g>
</svg>
